PathFileType	3	(X/Y/Z)	D:\minhoCalibration\240510\subject3_KPNP\preferred\preferred20.trc
DataRate	CameraRate	NumFrames	NumMarkers	Units	OrigDataRate	OrigDataStartFrame	OrigNumFrames
200.0	200.0	27	10	mm	200.0	227	146	
Frame#	Time	Left_Ankle_Outer1			Left_Ankle_Inner1			Left_Knee_Outer1			Left_Knee_Inner1			Left_Wrist1			Right_Wrist1			Right_Knee_Inner1			Right_Knee_Outer1			Right_Ankle_Inner1			Right_Ankle_Outer1			
		X1	Y1	Z1	X2	Y2	Z2	X3	Y3	Z3	X4	Y4	Z4	X5	Y5	Z5	X6	Y6	Z6	X7	Y7	Z7	X8	Y8	Z8	X9	Y9	Z9	X10	Y10	Z10	
227	1.125	-347.66714	90.336288	-520.68262	-403.41623	105.76564	-516.63788	-241.70169	515.54034	-419.267	-338.6282	519.25012	-390.54654	-164.13603	919.45996	-543.62231	-520.22626	1013.0436	-487.11685	-410.54483	848.30389	-105.6579	-519.20245	874.75403	-130.7912	-471.38455	512.30939	154.68695	-574.71594	528.52155	139.07286
228	1.13	-349.18018	88.2985	-520.90979	-404.30612	103.81226	-517.62543	-243.46832	513.89777	-419.91	-340.66635	517.92523	-393.37009	-164.15184	917.62927	-542.08472	-519.49329	1009.3279	-488.879	-414.44238	838.25482	-106.98829	-523.3244	864.64093	-134.22211	-476.75259	488.70462	135.64737	-579.66541	504.87125	117.99512
229	1.135	-350.15906	86.639442	-521.59491	-405.51273	101.92714	-518.53271	-245.09036	512.29095	-420.71979	-343.49802	515.99335	-395.76614	-163.88161	915.99048	-540.69342	-519.3609	1006.6706	-490.68674	-418.16949	827.80725	-108.6906	-527.3996	854.12152	-137.60701	-481.92935	466.10043	115.58261	-584.88361	482.45395	95.709488
230	1.14	-351.18839	85.14798	-522.34351	-406.8374	100.05643	-519.18896	-247.20032	510.44458	-421.5524	-345.75015	514.2738	-398.4881	-163.89444	914.35809	-539.36493	-519.72632	1004.627	-492.58405	-422.01672	816.78473	-110.79412	-530.75598	843.98987	-141.19278	-487.44266	444.0192	94.685158	-589.04352	460.50473	72.845467
231	1.145	-351.80997	84.028053	-523.03235	-408.33224	98.315697	-519.78589	-248.77051	508.83359	-422.32257	-347.79385	512.59381	-400.96201	-163.81151	912.66217	-538.01404	-520.2652	1002.8115	-494.3848	-425.90973	805.36017	-113.39275	-534.20764	833.58661	-144.60344	-491.33142	422.68295	71.939156	-593.83997	439.8952	49.014984
232	1.15	-353.54944	82.448898	-523.39435	-409.79218	96.513756	-520.29913	-250.29883	507.23248	-423.12747	-349.76743	511.05792	-403.1983	-164.01364	910.97302	-536.79449	-520.8017	1001.0574	-496.23074	-429.76379	793.60303	-116.41817	-537.37903	823.39276	-148.09422	-495.33151	402.05722	48.64064	-597.42297	419.53314	25.021994
233	1.155	-355.24829	80.846657	-523.66473	-411.39594	94.81292	-520.7074	-251.6647	505.7525	-423.99991	-351.4422	509.18811	-405.42645	-165.13614	908.85376	-535.26129	-521.22449	999.37415	-498.18427	-433.37445	781.62708	-119.98743	-540.48358	812.58386	-152.27522	-498.98248	382.2171	24.246748	-600.80328	399.85083	-0.41676503
234	1.16	-356.31586	79.396278	-524.22412	-412.65561	93.026619	-521.26556	-253.07941	504.29874	-424.776	-352.8703	507.77579	-407.44766	-164.34984	907.68988	-534.52515	-521.65234	997.61584	-500.14157	-436.93472	769.30048	-124.04498	-543.75525	802.15607	-156.44226	-502.12921	363.27136	-0.85688609	-603.6322	381.61606	-26.319824
235	1.165	-357.11203	78.198326	-524.7207	-413.96146	91.254997	-521.69141	-254.40988	502.88718	-425.71069	-354.44308	506.34045	-409.26904	-164.98521	905.87805	-533.04181	-521.9118	995.6662	-502.2027	-440.39108	756.77625	-128.5705	-546.68939	792.12451	-160.98637	-505.35904	344.85892	-26.641518	-606.28302	364.00134	-53.577
236	1.17	-358.56543	76.677399	-524.94208	-415.02252	89.372139	-522.2229	-255.82281	501.54846	-426.51953	-355.67249	505.41119	-410.66513	-165.11955	904.64539	-532.04187	-522.11646	993.52942	-504.17291	-443.82675	743.93268	-133.5607	-549.61761	781.75134	-166.23625	-507.44803	328.03009	-53.178341	-608.12	347.47812	-80.446213
237	1.175	-359.21841	75.099281	-525.50055	-415.9895	87.620758	-522.74573	-256.98804	500.18655	-427.54236	-357.68405	503.79132	-414.14093	-166.66219	902.88654	-530.57288	-522.591	991.09137	-505.94211	-447.14731	731.00677	-139.08037	-552.74365	771.11511	-171.56319	-509.29398	310.93646	-80.690933	-610.32233	332.61853	-108.84781
238	1.18	-359.66782	73.338104	-525.95062	-416.65427	85.585114	-523.36389	-258.16275	498.9201	-428.5538	-357.95746	502.8367	-413.4393	-165.94931	902.00702	-530.14673	-522.94122	988.3634	-507.7207	-450.1774	717.85022	-145.43834	-555.80743	760.77618	-176.79474	-510.93893	296.80307	-107.73014	-611.09808	318.09241	-136.86438
239	1.185	-360.75122	71.437775	-526.13336	-417.17126	83.593246	-524.01617	-259.34787	497.59479	-429.63623	-359.11606	501.78152	-415.457	-167.00186	900.48608	-528.9364	-523.27887	985.26324	-509.56332	-453.03616	704.74017	-152.37097	-558.28802	749.34863	-183.19083	-512.03931	282.4931	-135.86133	-611.76929	304.95636	-164.73999
240	1.19	-361.26947	69.410881	-526.56476	-417.66739	81.462341	-524.59137	-260.52768	496.31647	-430.91248	-359.66354	500.51868	-417.26581	-166.60564	899.59174	-528.46918	-523.63586	981.88654	-511.36273	-455.84885	691.37347	-159.70982	-560.92535	738.29407	-189.05086	-512.46912	269.47946	-164.25728	-611.98822	292.35239	-193.61259
241	1.195	-361.87448	67.334534	-526.90759	-418.15573	79.252197	-525.21649	-261.6069	495.09061	-432.15445	-360.45117	498.67874	-419.69699	-167.40195	898.20532	-527.44781	-523.98108	978.30408	-513.14288	-458.42126	678.15051	-167.55092	-563.55371	727.04242	-195.36528	-512.54089	258.20639	-192.43762	-612.48102	281.41647	-221.37149
242	1.2	-362.43002	65.560356	-527.36084	-419.11371	77.461227	-525.82147	-262.59525	493.69662	-433.32376	-362.00067	496.85004	-422.39426	-167.53003	897.05408	-526.8045	-524.42621	974.34198	-515.09637	-460.84256	664.95325	-175.80174	-566.25342	715.31891	-202.50247	-512.22827	247.21788	-221.08359	-612.10736	271.16345	-251.42029
243	1.205	-363.7457	64.235397	-527.91083	-420.40073	76.013863	-526.11432	-263.28421	492.48431	-434.57672	-363.09213	495.53256	-424.03085	-167.01088	896.34344	-526.41364	-524.92865	970.43903	-517.04156	-463.40237	651.85376	-184.55118	-569.3833	704.20142	-209.17227	-511.65665	237.19371	-249.81151	-611.88312	262.22092	-280.28333
244	1.21	-365.94049	63.402317	-527.44312	-421.91071	74.999115	-526.07678	-263.67172	491.28378	-435.56754	-364.19104	493.91287	-427.2608	-167.49796	895.34125	-525.42102	-525.39355	966.34302	-519.1601	-466.09406	638.93335	-193.55229	-572.26935	692.6601	-217.0983	-510.06686	228.49915	-277.81403	-609.70624	253.90625	-308.67249
245	1.215	-366.32727	63.280972	-528.06976	-423.06952	74.257561	-525.88727	-263.91412	490.24692	-436.39746	-364.99799	493.06314	-429.23218	-167.0903	894.91077	-524.84937	-526.02856	962.38007	-521.44739	-468.16318	626.27753	-203.33615	-575.51044	680.90656	-225.4185	-508.6152	220.5343	-306.11224	-608.52692	246.77397	-336.33478
246	1.22	-366.52148	63.409595	-528.15094	-423.58963	74.160255	-525.88116	-264.03732	489.40741	-436.8497	-366.11343	491.69986	-431.72079	-167.63692	894.0174	-523.88171	-526.85651	958.59705	-523.91174	-470.71814	613.8208	-213.40034	-578.69336	669.57111	-234.11111	-506.69385	213.42545	-334.19272	-606.04913	240.2058	-365.25311
247	1.225	-367.12976	63.032135	-527.58777	-423.58575	74.160889	-525.87512	-264.10703	489.11172	-436.85065	-366.3985	491.48044	-433.0347	-167.19392	893.85651	-523.58356	-527.92499	955.06665	-526.4906	-473.27567	601.71826	-223.78445	-582.06183	657.91138	-243.65221	-504.41849	207.2764	-361.81805	-603.64282	235.22917	-393.21414
248	1.23	-366.51941	63.197666	-527.97406	-423.35953	74.183022	-525.77838	-263.92746	489.32983	-436.41568	-366.60974	491.66885	-433.87744	-167.59721	893.79968	-522.84827	-529.0274	951.68073	-529.25775	-475.34354	589.94501	-234.42836	-585.06689	646.93506	-253.67493	-501.82385	201.93489	-389.01172	-600.01123	230.80479	-421.74622
249	1.235	-366.28979	63.157513	-527.87921	-422.96121	74.203629	-525.69366	-263.95123	490.09647	-435.88608	-366.56683	492.25101	-433.65976	-168.35341	893.60175	-521.94391	-530.10126	948.46143	-532.09772	-478.09427	578.90692	-246.11145	-587.71173	636.11658	-264.90149	-499.82431	194.17351	-418.73633	-596.74103	227.03455	-449.05051
250	1.24	-365.68427	63.53949	-527.72974	-422.3569	74.390945	-525.70374	-263.87003	491.04117	-435.2012	-366.20563	493.07291	-432.7955	-170.48495	893.59076	-520.67664	-531.11475	945.28723	-535.02094	-480.26987	568.01752	-258.12143	-590.7027	625.28375	-276.34256	-496.09518	190.37172	-444.17276	-592.6828	223.20091	-476.26602
251	1.245	-365.41702	63.536808	-527.65204	-421.64212	74.577278	-525.41357	-263.76825	492.04807	-434.60245	-365.60791	494.16888	-431.38254	-170.92915	894.23218	-520.12067	-531.77765	941.82086	-538.5415	-482.29642	557.43555	-270.62915	-593.13965	615.28687	-288.19693	-492.52228	187.33334	-469.69183	-589.40472	221.8349	-502.0253
252	1.25	-365.37485	63.21875	-527.47479	-421.50565	74.757416	-525.716	-263.74896	492.86133	-434.09213	-365.26462	495.23987	-431.10666	-171.74327	895.08221	-519.38763	-532.55597	938.85828	-541.79028	-483.95889	546.91266	-283.62811	-595.38782	605.69202	-300.06485	-488.42618	184.252	-494.71347	-585.57556	219.3849	-527.12341
253	1.255	-365.535	63.183552	-526.9472	-421.14471	74.907219	-525.72778	-263.77744	493.41684	-433.87915	-364.75436	495.71133	-429.95282	-172.70435	895.99121	-518.58435	-533.20673	936.15814	-545.18561	-485.73087	536.74695	-296.71268	-597.21112	595.91101	-313.20914	-484.2934	181.66687	-519.40057	-580.67035	218.10399	-553.59918
